<svg width="57" height="50" viewBox="0 0 57 50" fill="none" xmlns="http://www.w3.org/2000/svg">
<path d="M32.999 0C31.9181 0.777894 31.0044 1.77043 30.3124 2.91683L30.1853 3.13357L27.7849 7.36024L17.7928 24.9853L27.257 41.6296L24.8587 45.8583C22.9347 49.2606 18.9117 50.7993 15.2615 49.5291C13.4001 48.8971 11.8905 47.5102 10.8714 45.8048L10.7678 45.6272L0.830837 28.1188C0.282424 27.1756 1.05749e-05 26.0804 1.05749e-05 24.9853C-0.00188123 23.9536 0.250084 22.9389 0.731502 22.0334L0.830837 21.8538L11.0501 3.84356C12.3614 1.51342 14.777 0.0639844 17.4102 0.0020667L17.5861 0H32.999ZM36.1708 0.441406C39.7645 -0.790531 43.7086 0.677901 45.6772 3.95712L45.768 4.11216L55.8359 21.8517C56.3843 22.7928 56.6667 23.8901 56.6667 24.9853C56.6667 26.012 56.4185 27.0387 55.9356 27.9385L55.8359 28.1167L45.6166 46.1269C44.3054 48.4571 41.8897 49.9065 39.2565 49.9684L39.0806 49.9705H23.6677C24.7306 49.1956 25.6441 48.2175 26.3443 47.0689L26.4814 46.8369L28.8818 42.6082L38.8739 24.9853L29.4097 8.32009L31.677 4.34327C32.6961 2.55474 34.2472 1.09519 36.1708 0.441406Z" fill="#269468"/>
</svg>
