<svg width="20" height="20" viewBox="0 0 20 20" fill="none" xmlns="http://www.w3.org/2000/svg">
<rect width="20" height="20" rx="5" fill="#356F30"/>
<path d="M10.7293 9.89076H14.966V14.7377C14.3364 15.1746 13.6643 15.4956 12.9497 15.7006C12.2408 15.9002 11.4893 16 10.6953 16C9.68007 16 8.76128 15.8517 7.9389 15.555C7.11652 15.2529 6.41325 14.8348 5.82908 14.3007C5.24491 13.7667 4.79402 13.1328 4.47641 12.3992C4.1588 11.6655 4 10.8645 4 9.99595C4 9.11666 4.1503 8.31018 4.45089 7.57653C4.75715 6.84289 5.19103 6.21173 5.75251 5.68307C6.314 5.15442 6.99175 4.74174 7.78577 4.44504C8.58546 4.14835 9.47873 4 10.4656 4C10.976 4 11.4524 4.04046 11.8948 4.12138C12.3372 4.1969 12.7456 4.30479 13.1199 4.44504C13.4942 4.57991 13.8373 4.74174 14.1493 4.93055C14.4612 5.11935 14.7448 5.32704 15 5.55361L14.2599 6.6379C14.1464 6.81052 13.999 6.91571 13.8175 6.95347C13.636 6.99123 13.4375 6.94808 13.222 6.82401C13.0178 6.70533 12.8164 6.60013 12.6179 6.50843C12.4251 6.41133 12.2181 6.32771 11.9969 6.25759C11.7757 6.18746 11.5347 6.13351 11.2738 6.09575C11.0129 6.05799 10.7123 6.03911 10.372 6.03911C9.79918 6.03911 9.28023 6.13351 8.81516 6.32232C8.35009 6.51113 7.95308 6.77815 7.62413 7.1234C7.30085 7.46864 7.0513 7.88402 6.87548 8.36952C6.69966 8.85502 6.61176 9.39717 6.61176 9.99595C6.61176 10.6433 6.70817 11.2232 6.90101 11.7357C7.09384 12.2428 7.36607 12.6716 7.71771 13.0223C8.06935 13.3729 8.48904 13.6399 8.9768 13.8233C9.47022 14.0067 10.0175 14.0984 10.6187 14.0984C11.0271 14.0984 11.39 14.0607 11.7077 13.9852C12.0309 13.9042 12.3457 13.7964 12.652 13.6615V11.6871H11.2568C11.0923 11.6871 10.9618 11.6467 10.8654 11.5657C10.7747 11.4794 10.7293 11.3715 10.7293 11.2421V9.89076Z" fill="white"/>
</svg>
