<svg width="35" height="31" viewBox="0 0 35 31" fill="none" xmlns="http://www.w3.org/2000/svg">
<g id="workos-icon logo" clip-path="url(#clip0_40_674)">
<g id="Group">
<path id="Vector" d="M19.9244 0.885818C19.2759 1.35255 18.7276 1.94808 18.3124 2.63592L18.2362 2.76596L16.796 5.30196L10.8007 15.877L16.4792 25.8636L15.0402 28.4008C13.8858 30.4422 11.472 31.3654 9.28188 30.6033C8.16504 30.2241 7.25931 29.392 6.64786 28.3687L6.58566 28.2622L0.623502 17.7571C0.294454 17.1912 0.125006 16.5341 0.125006 15.877C0.123871 15.258 0.27505 14.6492 0.563901 14.1059L0.623502 13.9981L6.75509 3.19196C7.54181 1.79387 8.99122 0.924209 10.5711 0.887059L10.6767 0.885818H19.9244ZM21.8275 1.15066C23.9837 0.4115 26.3501 1.29256 27.5313 3.26009L27.5858 3.35311L33.6265 13.9968C33.9556 14.5615 34.125 15.2199 34.125 15.877C34.125 16.493 33.9761 17.1091 33.6863 17.6489L33.6265 17.7559L27.4949 28.562C26.7082 29.9601 25.2588 30.8297 23.6789 30.8669L23.5734 30.8681H14.3256C14.9633 30.4032 15.5114 29.8163 15.9316 29.1272L16.0139 28.988L17.4541 26.4507L23.4494 15.877L17.7708 5.87787L19.1312 3.49178C19.7427 2.41866 20.6733 1.54293 21.8275 1.15066Z" fill="#269468"/>
</g>
</g>
<defs>
<clipPath id="clip0_40_674">
<rect width="34" height="30" fill="white" transform="translate(0.125 0.885818)"/>
</clipPath>
</defs>
</svg>
